<?xml version="1.0"?>
<svg xmlns="http://www.w3.org/2000/svg" xmlns:xlink="http://www.w3.org/1999/xlink" xmlns:svgjs="http://svgjs.com/svgjs" version="1.1" width="512" height="512" x="0" y="0" viewBox="0 0 512.501 512.501" style="enable-background:new 0 0 512 512" xml:space="preserve" class=""><g><g xmlns="http://www.w3.org/2000/svg"><path d="m383.559 207.611v-96.588l47.114-17.81c5.835-2.206 9.696-7.793 9.696-14.031s-3.861-11.825-9.696-14.031l-169.118-63.932c-3.418-1.291-7.19-1.291-10.608 0l-169.118 63.931c-5.835 2.206-9.696 7.793-9.696 14.031s3.861 11.825 9.696 14.031l47.114 17.81v96.588c0 5.755 3.293 11.003 8.475 13.507 36.785 17.77 77.877 27.163 118.833 27.163s82.048-9.393 118.833-27.163c5.182-2.503 8.475-7.752 8.475-13.506zm-127.309-176.325 126.697 47.895-126.697 47.894-126.697-47.894zm0 186.995c-33.348 0-66.792-6.992-97.308-20.285v-75.632l92.004 34.78c3.418 1.291 7.19 1.291 10.608 0l92.004-34.78v75.632c-30.515 13.292-63.959 20.285-97.308 20.285z" fill="#ffffff" data-original="#000000" style=""/><path d="m127.237 245.366c-8.368-8.866-19.561-13.749-31.518-13.749-2.566 0-5.098.226-7.573.666v-69.55c0-25.256-19.771-45.803-44.074-45.803-24.301.001-44.072 20.548-44.072 45.804v141.108c0 22.239 8.154 43.252 22.96 59.167l100.975 108.536v25.705c0 8.284 6.716 15 15 15h89.398c8.284 0 15-6.716 15-15v-84.464c0-28.643-10.568-55.614-29.758-75.945zm86.096 236.884h-59.398v-16.604c0-3.791-1.436-7.441-4.018-10.217l-104.992-112.854c-9.625-10.345-14.925-24.101-14.925-38.733v-141.108c0-8.714 6.313-15.803 14.074-15.803 7.76 0 14.073 7.089 14.073 15.803v90.719c-10.323 17.532-8.313 40.952 6.055 56.176l64.208 68.027c2.951 3.127 6.926 4.704 10.911 4.704 3.693 0 7.395-1.356 10.293-4.092 6.024-5.686 6.299-15.18.612-21.204l-64.206-68.028c-5.863-6.212-5.897-16.673-.115-22.943.04-.043.075-.092.115-.135 2.642-2.799 6.087-4.341 9.7-4.341 3.614 0 7.059 1.542 9.701 4.341l86.338 91.475c13.71 14.526 21.574 34.702 21.574 55.353z" fill="#ffffff" data-original="#000000" style=""/><path d="m468.427 116.931c-24.302 0-44.073 20.547-44.073 45.803v69.55c-2.475-.44-5.007-.666-7.573-.666-11.957 0-23.15 4.883-31.517 13.749l-86.338 91.475c-19.19 20.331-29.758 47.302-29.758 75.945v84.464c0 8.284 6.716 15 15 15h89.398c8.284 0 15-6.716 15-15v-25.705l100.975-108.536c14.806-15.915 22.96-36.928 22.96-59.167v-141.109c0-25.256-19.772-45.803-44.074-45.803zm14.074 186.911c0 14.632-5.3 28.388-14.925 38.733l-104.993 112.855c-2.582 2.775-4.018 6.426-4.018 10.217v16.604h-59.398v-69.464c0-20.651 7.864-40.827 21.574-55.353l86.339-91.475c2.642-2.799 6.086-4.341 9.7-4.341s7.059 1.542 9.701 4.341c5.903 6.255 5.903 16.823 0 23.078l-64.207 68.027c-5.687 6.024-5.412 15.518.612 21.204 2.898 2.735 6.599 4.092 10.293 4.092 3.985 0 7.96-1.578 10.911-4.704l64.208-68.027c14.368-15.224 16.378-38.644 6.055-56.176v-90.719c0-8.714 6.314-15.803 14.074-15.803s14.073 7.089 14.073 15.803v141.108z" fill="#ffffff" data-original="#000000" style=""/></g></g></svg>
