<?xml version="1.0"?>
<svg xmlns="http://www.w3.org/2000/svg" xmlns:xlink="http://www.w3.org/1999/xlink" xmlns:svgjs="http://svgjs.com/svgjs" version="1.1" width="512" height="512" x="0" y="0" viewBox="0 0 512 512" style="enable-background:new 0 0 512 512" xml:space="preserve" class=""><circle r="256" cx="256" cy="256" fill="#2901ed" shape="circle"/><g transform="matrix(0.65,0,0,0.65,89.6,89.6)">
<g xmlns="http://www.w3.org/2000/svg">
	<path d="M497,110.371c8.284,0,15-6.716,15-15V15c0-8.284-6.716-15-15-15H95.543c-8.284,0-15,6.716-15,15v65.371H15   c-8.284,0-15,6.716-15,15v80.371c0,8.284,6.716,15,15,15h65.543v50.147H15c-8.284,0-15,6.716-15,15v80.371c0,8.284,6.716,15,15,15   h65.543v50.371H15c-8.284,0-15,6.716-15,15V497c0,8.284,6.716,15,15,15h401.457c8.284,0,15-6.716,15-15v-65.371H497   c8.284,0,15-6.716,15-15v-80.371c0-8.284-6.716-15-15-15h-65.543v-50.371H497c8.284,0,15-6.716,15-15v-80.371   c0-8.284-6.716-15-15-15h-65.543v-50.147H497z M110.543,30H482v50.371h-65.543H110.543V30z M30,110.371h371.457v50.371H30V110.371z    M30,270.888h371.457v50.371H30V270.888z M401.457,482H30v-50.371h371.457V482z M482,401.629h-65.543H110.543v-50.371h305.914H482   V401.629z M482,240.888h-65.543H110.543v-50.147h305.914c0.851,0,1.679-0.087,2.492-0.224H482V240.888z" fill="#ffffff" data-original="#000000" style="" class=""/>
</g>















</g></svg>
