<svg id="Capa_1" enable-background="new 0 0 497 497" height="512" viewBox="0 0 497 497" width="512" xmlns="http://www.w3.org/2000/svg"><g><g><path d="m330.736 414.406c-1.678-2.107-3.446-4.136-5.274-6.107-1.306-1.408-2.662-2.767-4.042-4.102-5.367 8.349-12.776 15.438-21.679 19.855-21.154 10.495-45.928 8.219-68.095 2.372-19.407-5.119-38.185-13.065-56.014-22.284-1.39 1.345-2.752 2.731-4.081 4.164-1.83 1.972-3.608 3.993-5.286 6.101-12.702 15.95-20.952 35.656-22.816 57.18-.266 3.075-.402 6.187-.402 9.33v16.085h210.907v-16.084c0-25.148-8.701-48.281-23.218-66.51z" fill="#8288cb"/><path d="m175.41 404.354c-1.313 1.278-2.601 2.594-3.86 3.951-1.83 1.972-3.608 3.993-5.286 6.101-12.702 15.95-20.952 35.656-22.816 57.18-.266 3.075-.402 6.187-.402 9.33v16.084h41.902v-16.084c0-13.263 2.444-25.967 6.872-37.698.802-2.125 1.671-4.217 2.602-6.275-7.746-9.936-13.853-21.478-19.012-32.589z" fill="#676fb2"/></g><g><path d="m269.433 376.644c-6.603-1.347-13.601-2.106-20.934-2.106-28.629 0-56.455 11.687-76.948 33.767 4.523 12.771 11.383 24.599 20.27 34.913 1.4 1.625 2.838 3.221 4.337 4.768 11.782 12.158 26.443 21.547 42.399 27.152 6.435 2.261 13.449 2.261 19.885 0 15.958-5.606 30.625-14.998 42.412-27.162 11.018-11.37 19.372-24.898 24.607-39.678-14.707-15.852-34.143-27.189-56.028-31.654z" fill="#88c5fd"/><path d="m269.433 376.644c-6.603-1.347-13.601-2.106-20.934-2.106-28.629 0-56.455 11.687-76.948 33.767 4.523 12.771 11.383 24.599 20.27 34.913 12.716-33.683 41.922-59.281 77.612-66.574z" fill="#64b3fb"/></g><g><path d="m248.5 358.39-51.536 29.754c3.151 14.931 10.458 28.357 20.738 38.965 8.465 8.735 18.943 15.561 30.798 19.726 11.858-4.166 22.342-10.995 30.81-19.734 10.28-10.608 17.587-24.032 20.738-38.96z" fill="#efedff"/><path d="m196.964 388.144c3.151 14.931 10.458 28.357 20.738 38.965 8.465 8.735 18.943 15.561 30.798 19.726v-88.445z" fill="#d4d4ff"/><path d="m248.5 446.834c11.858-4.166 22.342-10.995 30.81-19.734-8.465-8.735-18.943-15.561-30.798-19.726-11.858 4.166-22.342 10.995-30.81 19.734 8.464 8.736 18.943 15.562 30.798 19.726z" fill="#676fb2"/></g><g fill="#ffbf9d"><circle cx="51.026" cy="197.476" r="49.096"/><circle cx="445.974" cy="197.476" r="49.096"/></g><g><path d="m303.859 387.07c82.114-23.936 142.115-99.754 142.115-189.595 0-97.913-71.258-179.182-164.745-194.776-10.646-1.775-21.58-2.699-32.731-2.699-109.059 0-197.472 88.412-197.472 197.476 0 89.84 60.002 165.658 142.114 189.595 17.566 5.121 36.139 7.878 55.359 7.878 11.151 0 22.085-.928 32.731-2.707 7.702-1.289 15.254-3.022 22.629-5.172z" fill="#ffd4bd"/><path d="m116.487 197.476c0-97.911 71.262-179.18 164.742-194.776-10.646-1.776-21.58-2.7-32.731-2.7-109.059 0-197.472 88.413-197.472 197.476 0 89.84 60.002 165.658 142.114 189.595 17.566 5.121 36.139 7.878 55.359 7.878 11.151 0 22.085-.928 32.731-2.707-93.481-15.597-164.743-96.858-164.743-194.766z" fill="#ffbf9d"/></g><g fill="#ffbf9d"><ellipse cx="145.144" cy="250.859" rx="35" ry="27.5"/><ellipse cx="351.535" cy="250.859" rx="35" ry="27.5"/></g><g fill="#313d40"><path d="m178.5 215.481c-4.142 0-7.5 3.358-7.5 7.5v13.451c0 4.142 3.358 7.5 7.5 7.5s7.5-3.358 7.5-7.5v-13.451c0-4.142-3.358-7.5-7.5-7.5z"/><path d="m318.5 215.481c-4.142 0-7.5 3.358-7.5 7.5v13.451c0 4.142 3.358 7.5 7.5 7.5s7.5-3.358 7.5-7.5v-13.451c0-4.142-3.358-7.5-7.5-7.5z"/><path d="m271.883 230.377c-3.123-2.721-7.86-2.396-10.582.727-3.232 3.708-7.897 5.835-12.801 5.835s-9.569-2.127-12.801-5.835c-2.722-3.123-7.458-3.447-10.582-.727-3.123 2.722-3.448 7.459-.727 10.582 6.082 6.978 14.869 10.98 24.109 10.98s18.028-4.002 24.109-10.98c2.723-3.123 2.397-7.86-.725-10.582z"/></g><circle cx="318.046" cy="478" fill="#88c5fd" r="15"/><g><path d="m445.974 197.463c-.003-40.011-11.904-77.246-32.36-108.35-9.094-13.827-19.882-26.439-32.062-37.552l-42.916 100.009c27.558 28.392 66.334 45.887 107.338 45.893z" fill="#d6948c"/><path d="m408.524 18.875c-12.709 8.308-26.176 15.529-40.279 21.561-24.99-19.084-54.675-32.342-87.016-37.736-10.646-1.776-21.58-2.7-32.731-2.7-56.313 0-107.123 23.575-143.098 61.392-33.694 35.42-54.373 83.335-54.374 136.081l179.208-.04c97.853-1.846 179.23-68.868 204.963-158.828 4.515-15.787-12.929-28.715-26.673-19.73z" fill="#ce857a"/><path d="m281.229 2.7c-10.646-1.776-21.58-2.7-32.731-2.7-56.313 0-107.123 23.575-143.098 61.392-33.694 35.42-54.373 83.335-54.374 136.081l108.342-.024c-8.58-12.938-11.116-28.939-7.085-43.931 10.076-37.477 32.778-69.92 63.745-92.151 20.257-14.542 44.041-24.722 70.137-29.075l55.054-9.185c-18.45-9.834-38.633-16.845-59.99-20.407z" fill="#c77464"/></g></g></svg>