<svg id="Capa_1" enable-background="new 0 0 512 512" height="512" viewBox="0 0 512 512" width="512" xmlns="http://www.w3.org/2000/svg"><g><path d="m399.179 336.081-70.817-20.913v-41.844l34.064-34.063v-21.872l14.404-5.635c6.417-2.51 19.768-7.732 19.768-21.984v-36.518c8.344-16.746 11.662-43.851.621-68.556-7.202-16.116-23.361-37.043-59.451-46.402-19.538-23.385-48.939-38.294-81.768-38.294-32.349 0-61.369 14.478-80.904 37.274-36.288 9.388-52.637 30.658-59.964 47.053-11.204 25.07-8.016 52.253.27 68.922v36.521c0 14.252 13.351 19.475 19.767 21.984l14.405 5.635v21.872l34.064 34.063v41.844l-70.817 20.913c-55.243 16.313-84.443 46.141-84.443 86.26v89.659h220.122v-15h-126.055v-148.121l23.359-6.898c1.712 32.627 11.756 64.341 28.146 88.272 20.396 29.778 49.535 46.178 82.049 46.178 29.336 0 55.427-12.927 75.453-37.384l-11.605-9.503c-8.686 10.608-18.667 18.667-29.624 24.032l-11.01-35.377 15.554-23.714 12.312 10.723 42.943-50.947c-2.999 23.505-10.627 45.978-21.949 63.855l12.673 8.025c14.98-23.655 23.853-53.227 25.432-84.166l23.376 6.903v148.122h-126.054v15h220.122v-89.66c0-40.119-29.201-69.947-84.443-86.259zm-17.581-146.311c0 2.542-1.674 4.668-10.232 8.016l-8.939 3.497v-57.356h11.672c4.136 0 7.5 3.364 7.5 7.5v38.343zm1.926-98.954c6.454 14.443 6.829 30.109 4.112 42.653-3.77-2.849-8.46-4.542-13.538-4.542h-11.672v-22.75c0-16.898-3.984-32.882-11.053-47.079 15.023 7.202 25.993 17.938 32.151 31.718zm-127.524-75.816c50.413 0 91.426 40.901 91.426 91.176v27.165l-22.444 22.66c-5.372-10.563-16.342-17.822-28.982-17.822-15.339 0-28.221 10.685-31.617 25h-16.766c-3.396-14.315-16.278-25-31.617-25-12.64 0-23.61 7.259-28.982 17.822l-22.444-22.66v-27.165c0-50.275 41.013-91.176 91.426-91.176zm57.5 155.679c0 9.649-7.851 17.5-17.5 17.5s-17.5-7.851-17.5-17.5 7.851-17.5 17.5-17.5 17.5 7.851 17.5 17.5zm-80 0c0 9.649-7.851 17.5-17.5 17.5s-17.5-7.851-17.5-17.5 7.851-17.5 17.5-17.5 17.5 7.851 17.5 17.5zm-104.674-80.231c6.245-13.973 17.227-24.851 32.198-32.147-7.319 14.394-11.451 30.661-11.451 47.875v22.75h-11.672c-5.056 0-9.726 1.677-13.487 4.502-2.634-12.548-2.148-28.301 4.412-42.98zm11.808 107.338c-8.558-3.348-10.232-5.474-10.232-8.016v-38.344c0-4.135 3.364-7.5 7.5-7.5h11.672v57.357zm23.94-43.13 19.089 19.273c1.636 16.4 15.514 29.25 32.337 29.25 15.339 0 28.221-10.685 31.617-25h16.766c3.396 14.315 16.278 25 31.617 25 16.824 0 30.701-12.85 32.337-29.25l19.089-19.273v78.392l-57.728 57.726h-67.396l-57.728-57.726zm51.515 151.118h79.822l17.451-17.45v27.655l-57.362 26.531-57.362-26.531v-27.655zm-25.536 22.992 51.791 23.954-35.781 31.164-40.391-47.918zm-147.175 168.234v-74.66c0-30.994 21.548-54.103 64.067-68.792v143.452zm142.949-75.224c-12.693-18.531-21.168-42.343-24.355-67.522l42.948 50.953 12.312-10.723 15.554 23.714-11.031 35.443c-16.141-7.908-27.688-20.564-35.428-31.865zm69.673 39.655c-7.27 0-13.976-.935-20.162-2.559l10.683-34.326h18.959l10.674 34.296c-6.477 1.717-13.212 2.589-20.154 2.589zm10.95-51.885h-21.9l-16.401-25.005 27.351-23.822 27.351 23.821zm38.486-25.662-35.781-31.164 51.791-23.954 24.38 7.199zm163.186 113.116h-64.067v-143.451c42.519 14.689 64.067 37.798 64.067 68.792z"/><path d="m298.593 244.232 8.879-12.09-19.014-13.963h-24.958v15h20.042z"/><path d="m237.25 248.179h37.5v15h-37.5z"/><path d="m248.5 233.179v-15h-24.958l-19.014 13.963 8.879 12.09 15.051-11.053z"/><path d="m438.622 437.34h15v15h-15z"/><path d="m286 67.5h15v-15h-15v-15h-15v15h15z"/><path d="m438.622 407.341h15v15h-15z"/></g></svg>