<?xml version="1.0"?>
<svg xmlns="http://www.w3.org/2000/svg" xmlns:xlink="http://www.w3.org/1999/xlink" xmlns:svgjs="http://svgjs.com/svgjs" version="1.1" width="512" height="512" x="0" y="0" viewBox="0 0 512 512" style="enable-background:new 0 0 512 512" xml:space="preserve" class=""><g><g xmlns="http://www.w3.org/2000/svg"><path d="m114.039 364.076v-17.49c0-23.989 16.493-44.696 42.018-52.753 8.059-2.544 25.935-6.752 41.818-10.329-4.937-5.36-8.996-10.72-12.4-16.317-8.829-14.514-12.898-29.986-12.804-48.691l-.001-59.453c0-45.239 36.8-82.043 82.034-82.043h115.07c8.557 0 15.494 6.938 15.494 15.496 0 32.311-18.779 60.308-45.989 73.677l-.002 52.448c.091 18.338-4.098 34.249-12.804 48.565-3.404 5.598-7.463 10.958-12.4 16.317 15.882 3.577 33.755 7.784 41.815 10.328 25.524 8.057 42.018 28.764 42.018 52.753v17.638l53.183-28.541v-320.681c0-8.284-6.715-15-14.998-15h-360.127c-8.283 0-14.998 6.716-14.998 15v320.953z" fill="#15317e" data-original="#000000" style="" class=""/><path d="m346.559 323.387c-10.553-3.331-44.347-10.844-62.459-14.753-8.522 4.816-18.271 7.423-28.127 7.423-9.855 0-19.606-2.607-28.127-7.423-18.114 3.91-51.913 11.423-62.463 14.753-9.841 3.106-20.356 10.832-20.356 23.198v33.911l12.599 6.676 79.226-51.859c11.879-7.784 27.2-7.766 39.037.038l79.337 51.775 11.688-6.273v-34.269c.001-12.365-10.514-20.09-20.355-23.197z" fill="#15317e" data-original="#000000" style="" class=""/><path d="m31.969 315.725v-138.587h-8.429c-12.951 0-23.487 10.537-23.487 23.49l-.053 103.019 31.969 16.94z" fill="#15317e" data-original="#000000" style="" class=""/><path d="m480.084 315.734v4.388l31.862-17.099v-4.331l.054-.029v-98.034c0-12.952-10.537-23.49-23.488-23.49h-8.428z" fill="#15317e" data-original="#000000" style="" class=""/><path d="m384.801 406.427 127.145 82.973v-2.261l.054.035v-149.009z" fill="#15317e" data-original="#000000" style="" class=""/><path d="m258.845 361.235c-1.52-1.003-3.479-1.001-5.001-.004l-230.304 150.769h464.972z" fill="#15317e" data-original="#000000" style="" class=""/><path d="m128.016 406.556-128.016-67.835v151.631z" fill="#15317e" data-original="#000000" style="" class=""/><path d="m227.666 174.539-24.007 27.516v16.518c-.064 12.973 2.492 22.974 8.29 32.506 5.633 9.261 14.363 18.119 28.309 28.721 4.53 3.444 9.965 5.264 15.715 5.264s11.186-1.821 15.715-5.264c13.945-10.602 22.676-19.46 28.308-28.72 5.798-9.533 8.355-19.52 8.291-32.382l.002-44.33z" fill="#15317e" data-original="#000000" style="" class=""/><path d="m203.841 154.707 5.105-5.852c2.943-3.373 7.199-5.308 11.675-5.308h82.611c22.747 0 42.067-14.958 48.642-35.555h-97.171c-26.685 0-48.655 20.587-50.862 46.715z" fill="#15317e" data-original="#000000" style="" class=""/></g></g></svg>
