<svg id="Layer_1" enable-background="new 0 0 512.455 512.455" height="512" viewBox="0 0 512.455 512.455" width="512" xmlns="http://www.w3.org/2000/svg"><g><path d="m124.248 412.637c0 8.284 6.716 15 15 15h236.374c8.284 0 15-6.716 15-15v-32.767h-266.374z"/><path d="m256.228 305.969c-6.071 0-11.972-1.227-17.538-3.647l-114.441-49.727v97.275h266.374v-98.324l-116.86 50.778c-5.564 2.418-11.464 3.645-17.535 3.645z"/><path d="m503.433 170.909c5.467-2.375 9.008-7.761 9.022-13.721.015-5.96-3.501-11.363-8.956-13.765l-238.096-104.817c-3.805-1.676-8.137-1.696-11.957-.057l-244.359 104.817c-5.501 2.359-9.073 7.764-9.087 13.75s3.532 11.407 9.022 13.792l241.228 104.818c1.906.829 3.941 1.243 5.978 1.243 2.036 0 4.071-.414 5.978-1.243l172.614-75.004v31.62 227.779c0 8.284 6.716 15 15 15s15-6.716 15-15v-240.815-31.619z"/></g></svg>