<svg id="Capa_1" enable-background="new 0 0 512 512" height="512" viewBox="0 0 512 512" width="512" xmlns="http://www.w3.org/2000/svg"><g><path d="m94.008 245.23c-3.465 6.968-5.413 14.822-5.413 23.132 0 12.346 4.305 23.681 11.492 32.6 3.318 4.118 3.318 10.007 0 14.125-7.187 8.918-11.492 20.254-11.492 32.6 0 26.168 19.323 48.68 44.478 52.481l122.924 56.429 97.174-56.429c25.155-3.802 44.478-26.313 44.478-52.481 0-12.346-4.305-23.681-11.492-32.6-3.319-4.118-3.319-10.007 0-14.125 7.187-8.918 11.492-20.254 11.492-32.6 0-8.31-1.948-16.164-5.413-23.132z" fill="#5d5360"/><path d="m411.908 315.091c7.191 8.911 11.497 20.253 11.497 32.595 0 26.167-19.326 48.676-44.473 52.477h-30.905c25.147-3.801 44.473-26.311 44.473-52.477 0-12.342-4.306-23.684-11.497-32.595-3.317-4.121-3.317-10.013 0-14.134 7.191-8.911 11.497-20.253 11.497-32.595 0-4.162-.484-8.2-1.401-12.074-.927-3.873-2.277-7.572-4.007-11.054h30.905c1.731 3.482 3.08 7.18 4.007 11.054.917 3.873 1.401 7.912 1.401 12.074 0 12.342-4.306 23.684-11.497 32.595-3.318 4.121-3.318 10.013 0 14.134z" fill="#514a54"/><path d="m182.605 375.92h146.786v35.558h-146.786z" fill="#f4f4f4"/><path d="m328.628 396.62c45.516 0 82.414 36.898 82.414 82.414v12.362c0 11.379-9.225 20.604-20.604 20.604l-36.112-12.884-55.573 12.884h-85.495l-107.198-26.112-6.118-68.6c14.537-12.861 33.65-20.668 54.586-20.668z" fill="#fcf1f2"/><path d="m394.331 432.116c-14.88-21.45-39.683-35.497-67.763-35.497h30.905c20.938 0 40.053 7.809 54.591 20.674 1.022 8.359-9.962 16.626-17.733 14.823z" fill="#f4e5e0"/><path d="m211.187 437.503-28.582-40.883h28.582v-62.135h89.626v62.135h21.886l-21.886 40.883z" fill="#bc845e"/><path d="m213.258 512h-120.542c-11.383 0-20.604-9.22-20.604-20.604v-12.362c0-24.58 10.765-46.657 27.836-61.739z" fill="#fc8d94"/><path d="m425.035 488.959c-2.362 19.842-23.213 23.041-34.596 23.041h-91.686l95.571-79.879 26.459 20.617z" fill="#fc8d94"/><path d="m439.887 479.034v12.362c0 11.383-9.22 20.604-20.604 20.604h-30.905c11.383 0 20.604-9.22 20.604-20.604v-12.362c0-17.431-5.419-33.604-14.659-46.914l17.74-14.824c17.059 15.092 27.824 37.158 27.824 61.738z" fill="#fa6f7c"/><path d="m344.702 418.21-49.717 41.718c-6.538 5.486-16.285 4.633-21.77-1.905l-17.217-20.518 73.392-61.583 17.217 20.518c5.486 6.537 4.633 16.284-1.905 21.77z" fill="#fff"/><path d="m167.292 418.208 49.717 41.718c6.538 5.486 16.285 4.633 21.77-1.905l17.217-20.518-73.392-61.583-17.217 20.518c-5.485 6.538-4.632 16.285 1.905 21.77z" fill="#fff"/><path d="m366.744 186.463 15.692.725c9.408 0 31.181 2.953 35.217 20.263 4.863 5.533 7.812 12.789 7.812 20.734 0 17.353-14.067 31.42-31.42 31.42h-27.3v-73.142z" fill="#bc845e"/><path d="m394.559 235.911h-27.815c-4.267 0-7.726-3.459-7.726-7.726s3.459-7.726 7.726-7.726h27.815c4.267 0 7.726 3.459 7.726 7.726.001 4.267-3.459 7.726-7.726 7.726z" fill="#ad775c"/><path d="m155.557 196.765-45.843-12.529c-9.408 0-14.127 10.709-15.368 23.216-4.863 5.533-7.812 12.789-7.812 20.734 0 17.353 14.067 31.42 31.42 31.42h37.602v-62.841z" fill="#bc845e"/><path d="m145.256 235.911h-27.815c-4.267 0-7.726-3.459-7.726-7.726s3.459-7.726 7.726-7.726h27.815c4.267 0 7.726 3.459 7.726 7.726s-3.459 7.726-7.726 7.726z" fill="#ad775c"/><path d="m124.652 145.256 10.302 51.509v42.753c0 61.617 46.039 112.481 105.593 120.069 5.06.645 17.874-2.674 17.874-2.674 34.509-2.089 98.021-50.543 98.021-117.395v-94.262z" fill="#d19a6e"/><path d="m398.736 173.841-21.69 22.923v42.753c0 33.419-13.547 63.686-35.459 85.587-21.902 21.912-52.168 35.459-85.587 35.459-5.233 0-10.395-.33-15.453-.979 27.248-3.472 51.664-15.999 70.135-34.48 21.912-21.902 35.459-52.168 35.459-85.587v-94.262z" fill="#bc845e"/><path d="m255.922 312.197c-15.063 0-30.096-5.313-42.61-15.941-3.253-2.763-3.65-7.638-.888-10.891 2.762-3.252 7.637-3.649 10.891-.888 19.155 16.268 46.047 16.26 65.397-.023 3.265-2.748 8.139-2.328 10.886.938 2.747 3.265 2.327 8.139-.938 10.886-12.61 10.612-27.69 15.919-42.738 15.919z" fill="#ad775c"/><path d="m271.453 241.062h-30.905c-4.267 0-7.726-3.459-7.726-7.726s3.459-7.726 7.726-7.726h30.905c4.267 0 7.726 3.459 7.726 7.726s-3.459 7.726-7.726 7.726z" fill="#a4e8f9"/><path d="m225.095 259.606h-30.905c-8.534 0-15.453-6.918-15.453-15.453v-20.604c0-8.534 6.918-15.453 15.453-15.453h30.905c8.534 0 15.453 6.918 15.453 15.453v20.604c-.001 8.534-6.919 15.453-15.453 15.453z" fill="#e6fcff"/><path d="m317.811 259.606h-30.905c-8.534 0-15.453-6.918-15.453-15.453v-20.604c0-8.534 6.918-15.453 15.453-15.453h30.905c8.534 0 15.453 6.918 15.453 15.453v20.604c0 8.534-6.919 15.453-15.453 15.453z" fill="#e6fcff"/><path d="m390.851 196.765h-13.804v-12.548c0-7.695-8.128-12.682-14.979-9.169-19.913 10.209-39.827 8.396-59.74-5.429-3.606-2.503-8.344-2.503-11.96 0-22.911 15.906-45.822 15.906-68.734 0-3.616-2.503-8.355-2.503-11.96 0-19.913 13.825-39.827 15.638-59.74 5.429-6.851-3.513-14.979 1.473-14.979 9.169v12.548h-16.998c-9.406 0-17.843 4.131-23.601 10.693-3.678-7.046-5.759-15.061-5.759-23.571 0-6.583 1.247-12.877 3.523-18.646 2.266-5.769 5.563-11.033 9.663-15.556 1.762-1.947 2.668-4.409 2.668-6.902 0-1.937-.546-3.884-1.648-5.604-5.079-7.932-8.025-17.348-8.025-27.465 0-12.846 4.749-24.58 12.589-33.543 7.84-8.973 18.77-15.164 31.122-16.926 4.121-.598 7.366-3.698 8.417-7.726 5.697-21.933 25.631-38.127 49.346-38.127 5.295 0 10.405.814 15.205 2.318 3.503 1.092 7.325.258 10.024-2.236 9.084-8.364 21.199-13.474 34.519-13.474 6.655 0 13.022 1.277 18.852 3.606 5.831 2.318 11.126 5.687 15.669 9.869 2.699 2.493 6.521 3.328 10.024 2.236 4.801-1.504 11.164 3.328 16.459 3.328 11.857 0 34.385 22.9 36.693 31.811.464 1.762 16.422 15.408 18.74 15.748 11.198 1.597 29.849 73.024 29.849 74.96 0 2.493 14.088 35.118 14.088 35.118z" fill="#6f6571"/><path d="m423.404 183.887c0 4.512-.587 8.89-1.69 13.052-.979 3.688-2.349 7.211-4.069 10.518-5.759-6.562-14.196-10.693-23.601-10.693h-3.194c1.082-4.11 1.648-8.427 1.648-12.877 0-13.166-4.996-25.157-13.186-34.202-1.762-1.947-2.668-4.409-2.668-6.902 0-1.937.546-3.884 1.648-5.604 2.545-3.966 4.543-8.303 5.913-12.918 1.37-4.605 2.112-9.488 2.112-14.546 0-14.052-5.676-26.774-14.876-35.995-7.613-7.644-17.637-12.877-28.835-14.474-2.318-.34-4.358-1.463-5.882-3.101-1.195-1.277-2.071-2.864-2.534-4.626-2.308-8.911-6.974-16.874-13.289-23.189-1.453-1.463-2.998-2.823-4.625-4.1-4.729-3.709-10.127-6.593-15.978-8.447.082-.021.165-.041.247-.072 4.801-1.504 9.91-2.318 15.205-2.318 11.857 0 22.767 4.049 31.431 10.837 1.628 1.277 3.173 2.637 4.626 4.1 6.315 6.315 10.982 14.278 13.289 23.189.464 1.762 1.339 3.348 2.534 4.626 1.525 1.638 3.564 2.761 5.882 3.101 11.198 1.597 21.222 6.83 28.835 14.474 9.199 9.22 14.876 21.943 14.876 35.995 0 5.058-.742 9.941-2.112 14.546-1.37 4.615-3.369 8.952-5.913 12.918-1.102 1.72-1.648 3.667-1.648 5.604 0 2.493.907 4.955 2.668 6.902 8.19 9.045 13.186 21.037 13.186 34.202z" fill="#5d5360"/></g></svg>