<?xml version="1.0"?>
<svg xmlns="http://www.w3.org/2000/svg" xmlns:xlink="http://www.w3.org/1999/xlink" xmlns:svgjs="http://svgjs.com/svgjs" version="1.1" width="512" height="512" x="0" y="0" viewBox="0 0 511.971 511.971" style="enable-background:new 0 0 512 512" xml:space="preserve"><g><g xmlns="http://www.w3.org/2000/svg"><path d="m11.719 291.279-11.719 9.36v159.013h511.971v-44.959l-331.825-145.495c-56.06-24.579-120.597-16.119-168.427 22.081z" fill="#ffffff" data-original="#000000" style=""/><path d="m277.378 279.075 42.67-20.901c18.086-8.859 37.279-14.889 56.949-17.981-4.443-153.25-220.068-164.562-241.305-13.684 19.18 2.156 38.222 7.2 56.501 15.216z" fill="#ffffff" data-original="#000000" style=""/><path d="m333.245 285.115-19.881 9.738 198.607 87.083v-78.773c-25.026-19.294-54.839-31.211-86.283-34.481-31.784-3.303-63.748 2.378-92.443 16.433z" fill="#ffffff" data-original="#000000" style=""/><g><path d="m240.999 52.319h30v41.173h-30z" fill="#ffffff" data-original="#000000" style=""/></g><g><path d="m173.241 66.721h30v41.173h-30z" transform="matrix(.914 -.407 .407 .914 -19.237 84.113)" fill="#ffffff" data-original="#000000" style=""/></g><g><path d="m117.199 107.438h30v41.173h-30z" transform="matrix(.669 -.743 .743 .669 -51.4 140.602)" fill="#ffffff" data-original="#000000" style=""/></g><g><path d="m82.564 167.429h30v41.173h-30z" transform="matrix(.309 -.951 .951 .309 -111.398 222.704)" fill="#ffffff" data-original="#000000" style=""/></g><g><path d="m303.155 72.307h41.173v30h-41.173z" transform="matrix(.407 -.914 .914 .407 112.304 347.548)" fill="#ffffff" data-original="#000000" style=""/></g><g><path d="m359.197 113.024h41.173v30h-41.173z" transform="matrix(.743 -.669 .669 .743 11.887 287.014)" fill="#ffffff" data-original="#000000" style=""/></g><g><path d="m393.832 173.015h41.173v30h-41.173z" transform="matrix(.951 -.309 .309 .951 -37.815 137.253)" fill="#ffffff" data-original="#000000" style=""/></g></g></g></svg>
